<svg xmlns="http://www.w3.org/2000/svg" width="50" height="50" viewBox="0 0 50 50" fill="none">
  <path fill-rule="evenodd" clip-rule="evenodd" d="M43.1875 14.8337L42.8958 14.3128C42.5196 13.683 41.9889 13.1596 41.3542 12.792L27.375 4.72949C26.7421 4.3623 26.0235 4.16828 25.2917 4.16699H24.6875C23.9556 4.16828 23.2371 4.3623 22.6042 4.72949L8.625 12.8128C7.99369 13.1779 7.46929 13.7023 7.10417 14.3337L6.8125 14.8545C6.44531 15.4875 6.25129 16.206 6.25 16.9378V33.0837C6.25129 33.8155 6.44531 34.5341 6.8125 35.167L7.10417 35.6878C7.47873 36.3118 8.00102 36.8341 8.625 37.2087L22.625 45.2711C23.2548 45.6459 23.9754 45.8405 24.7083 45.8336H25.2917C26.0235 45.8324 26.7421 45.6384 27.375 45.2711L41.3542 37.1878C41.9917 36.8309 42.5181 36.3045 42.875 35.667L43.1875 35.1462C43.5502 34.5114 43.7439 33.7941 43.75 33.0628V16.917C43.7487 16.1852 43.5548 15.4667 43.1875 14.8337ZM24.6875 8.33366H25.2917L37.5 15.3753L25 22.5837L12.5 15.3753L24.6875 8.33366ZM27.0833 40.6253L39.2708 33.5837L39.5833 33.0628V18.9795L27.0833 26.2087V40.6253Z" fill="black"/>
</svg>